<svg width="20" height="25" viewBox="0 0 25 35" fill="none" xmlns="http://www.w3.org/2000/svg">
<path d="M20.4545 12.8333H19.3182V7C19.3182 5.14348 18.5998 3.36301 17.3212 2.05025C16.0425 0.737498 14.3083 0 12.5 0C10.6917 0 8.95747 0.737498 7.67882 2.05025C6.40016 3.36301 5.68182 5.14348 5.68182 7V12.8333H4.54545C3.34033 12.8347 2.18494 13.3268 1.33279 14.2017C0.480633 15.0765 0.00131595 16.2627 0 17.5V30.3333C0.00131595 31.5706 0.480633 32.7568 1.33279 33.6317C2.18494 34.5065 3.34033 34.9986 4.54545 35H20.4545C21.6597 34.9986 22.8151 34.5065 23.6672 33.6317C24.5194 32.7568 24.9987 31.5706 25 30.3333V17.5C24.9987 16.2627 24.5194 15.0765 23.6672 14.2017C22.8151 13.3268 21.6597 12.8347 20.4545 12.8333ZM17.0455 12.8333H7.95455V7C7.95455 5.76232 8.43344 4.57534 9.28588 3.70017C10.1383 2.825 11.2945 2.33333 12.5 2.33333C13.7055 2.33333 14.8617 2.825 15.7141 3.70017C16.5666 4.57534 17.0455 5.76232 17.0455 7V12.8333Z" fill="#00093C"/>
</svg>
