<svg width="16" height="20" viewBox="0 0 16 20" fill="none" xmlns="http://www.w3.org/2000/svg">
<path d="M15.4901 9.125H14.3301V17.0625H1.67011V4.1H8.00011V2.5H1.67011C1.50854 2.50634 1.34962 2.55307 1.20274 2.63746C1.05586 2.72184 0.923995 2.84216 0.814933 2.9913C0.705871 3.14045 0.621822 3.3154 0.567749 3.50582C0.513677 3.69624 0.490677 3.89828 0.500108 4.1V17.0625C0.494768 17.2612 0.520803 17.4592 0.576726 17.6452C0.632649 17.8313 0.717363 18.0018 0.826025 18.1469C0.934686 18.292 1.06516 18.4089 1.21 18.4909C1.35483 18.573 1.51118 18.6185 1.67011 18.625H14.3301C14.489 18.6185 14.6454 18.573 14.7902 18.4909C14.9351 18.4089 15.0655 18.292 15.1742 18.1469C15.2829 18.0018 15.3676 17.8313 15.4235 17.6452C15.4794 17.4592 15.5054 17.2612 15.5001 17.0625L15.4901 9.125Z" fill="black"/>
<path d="M10.56 3.5875L6.21999 9.025L5.77999 9.575L5.69999 9.675L4.17999 13.625C4.07801 13.8786 4.04257 14.1659 4.0787 14.4461C4.11484 14.7264 4.22071 14.9852 4.38127 15.1859C4.54183 15.3866 4.74891 15.519 4.97308 15.5641C5.19726 15.6093 5.42712 15.565 5.62999 15.4375L8.76999 13.525L9.29999 12.8625L9.72999 12.325L14.07 6.875L14.52 6.325L14.77 6.0125C15.1779 5.50162 15.407 4.8093 15.407 4.0875C15.407 3.3657 15.1779 2.67339 14.77 2.1625C14.3632 1.65772 13.8132 1.37461 13.24 1.375C12.6638 1.37403 12.1105 1.65698 11.7 2.1625L11 3.025L10.55 3.575L10.56 3.5875ZM5.50999 13.75L6.68999 10.7125L7.93999 12.2875L5.50999 13.75ZM7.50999 9.55L11.41 4.6625L12.71 6.3L8.84999 11.25L7.50999 9.55ZM13.19 2.9125C13.3108 2.91199 13.4306 2.94157 13.5422 2.99952C13.6538 3.05746 13.755 3.14262 13.84 3.25C14.0128 3.46774 14.1098 3.76203 14.1098 4.06875C14.1098 4.37547 14.0128 4.66976 13.84 4.8875L13.59 5.1875L12.29 3.5625L12.54 3.25C12.6302 3.13891 12.7386 3.05348 12.8577 2.99955C12.9768 2.94562 13.1038 2.92445 13.23 2.9375L13.19 2.9125Z" fill="black"/>
</svg>
