<svg width="35" height="30" viewBox="0 0 45 47" fill="none" xmlns="http://www.w3.org/2000/svg">
<path d="M41.9414 20.5029C41.7511 20.2212 41.496 19.9918 41.1987 19.8348C40.9013 19.6779 40.5708 19.5983 40.2363 19.603H37.2656V16.0037C37.2656 15.4309 37.0434 14.8816 36.6478 14.4766C36.2522 14.0716 35.7157 13.8441 35.1562 13.8441H22.9746C22.8227 13.8428 22.675 13.7924 22.5527 13.7001L17.666 9.95682C17.2997 9.67875 16.8564 9.52745 16.4004 9.5249H7.03125C6.47181 9.5249 5.93528 9.75243 5.5397 10.1574C5.14411 10.5624 4.92188 11.1117 4.92188 11.6845V37.5997C4.92559 37.7493 4.97475 37.8939 5.0625 38.0136C5.12276 38.1097 5.20616 38.1883 5.30467 38.2419C5.40317 38.2955 5.51348 38.3222 5.625 38.3195H36.5625C36.7089 38.3176 36.8512 38.27 36.9705 38.1832C37.0898 38.0964 37.1805 37.9745 37.2305 37.8336L42.2402 22.4465C42.3458 22.1217 42.3737 21.7756 42.3217 21.4375C42.2698 21.0993 42.1393 20.7788 41.9414 20.5029ZM7.03125 10.9646H16.4004C16.5523 10.9659 16.7 11.0163 16.8223 11.1086L21.709 14.8519C22.0753 15.13 22.5186 15.2813 22.9746 15.2838H35.1562C35.3427 15.2838 35.5216 15.3597 35.6534 15.4947C35.7853 15.6297 35.8594 15.8128 35.8594 16.0037V19.603H12.2695C11.8265 19.6024 11.3944 19.7446 11.0347 20.0095C10.675 20.2743 10.4059 20.6485 10.2656 21.0788L6.32812 33.1725V11.6845C6.32812 11.4936 6.4022 11.3105 6.53407 11.1755C6.66593 11.0405 6.84477 10.9646 7.03125 10.9646ZM40.9043 21.9966L36.0527 36.8798H6.5918L11.6016 21.5287C11.647 21.3848 11.7365 21.2598 11.8568 21.1723C11.9772 21.0847 12.1219 21.0393 12.2695 21.0428H40.2363C40.3478 21.0401 40.4582 21.0668 40.5567 21.1204C40.6552 21.174 40.7386 21.2526 40.7988 21.3487C40.8681 21.439 40.9141 21.5456 40.9325 21.6588C40.9509 21.7721 40.9412 21.8882 40.9043 21.9966Z" fill="white"/>
</svg>
