<svg width="72" height="34" viewBox="0 0 72 34" fill="none" xmlns="http://www.w3.org/2000/svg">
<g clip-path="url(#clip0_403_5698)">
<path d="M9.48499 33.5753C4.25376 33.5753 0 30.0654 0 25.7492C0 21.4329 4.25376 17.923 9.48499 17.923C14.7162 17.923 18.97 21.4329 18.97 25.7492C18.97 30.0891 14.7162 33.5753 9.48499 33.5753Z" fill="white"/>
<path d="M7.2 31.6712C3.22901 31.6712 0 29.0602 0 25.8493C0 22.6384 3.22901 20.0274 7.2 20.0274C11.171 20.0274 14.4 22.6384 14.4 25.8493C14.4 29.0778 11.171 31.6712 7.2 31.6712Z" fill="white"/>
<path d="M29.693 0.206531L21.5912 10.9462C21.3649 11.2583 21.6138 11.6438 22.0438 11.6438H30.1456H38.2479C38.6779 11.6438 38.9269 11.24 38.7006 10.9462L30.5983 0.206531C30.3719 -0.0688437 29.8966 -0.0688437 29.693 0.206531Z" fill="white"/>
<path d="M14.3004 2.40406L11.4784 0.119537C11.2816 -0.0398456 10.9313 -0.0398456 10.7345 0.119537L7.62799 2.63428C7.43115 2.79366 7.08131 2.79366 6.88447 2.63428L3.778 0.119537C3.58116 -0.0398456 3.23087 -0.0398456 3.03403 0.119537L0.212083 2.40406C0.0152431 2.56344 0.0152431 2.84678 0.212083 3.00617L3.31856 5.52086C3.5154 5.68024 3.5154 5.96359 3.31856 6.12297L0.212083 8.63771C0.0152431 8.79709 0.0152431 9.08043 0.212083 9.23982L3.03403 11.5243C3.23087 11.6837 3.58116 11.6837 3.778 11.5243L6.88447 9.0096C7.08131 8.85022 7.43115 8.85022 7.62799 9.0096L10.7345 11.5243C10.9313 11.6837 11.2816 11.6837 11.4784 11.5243L14.3004 9.23982C14.4972 9.08043 14.4972 8.79709 14.3004 8.63771L11.1939 6.12297C10.9971 5.96359 10.9971 5.68024 11.1939 5.52086L14.3004 3.00617C14.5191 2.84678 14.5191 2.58115 14.3004 2.40406Z" fill="white"/>
<path d="M30.736 16.9142V33.9767H27.2321V16.9142H30.736ZM35.986 16.9142V19.6682H22.0642V16.9142H35.986ZM40.4626 24.8478L43.7438 22.7267C44.2282 22.4064 44.5524 22.0978 44.7165 21.801C44.8806 21.5041 44.9626 21.1721 44.9626 20.8049C44.9626 20.4377 44.8259 20.0978 44.5524 19.7853C44.279 19.465 43.8962 19.3049 43.404 19.3049C43.0524 19.3049 42.7556 19.3869 42.5134 19.551C42.2712 19.7072 42.0876 19.9182 41.9626 20.1838C41.8454 20.4494 41.7868 20.7463 41.7868 21.0744C41.7868 21.426 41.8806 21.7853 42.0681 22.1525C42.2556 22.5119 42.5095 22.8947 42.8298 23.301C43.1501 23.6994 43.5056 24.133 43.8962 24.6017L51.947 33.9767H48.1149L41.5524 26.383C40.9978 25.6955 40.5134 25.0666 40.0993 24.4963C39.6853 23.9182 39.361 23.3557 39.1267 22.8088C38.8923 22.2619 38.7751 21.6994 38.7751 21.1213C38.7751 20.2307 38.9665 19.4533 39.3493 18.7892C39.7321 18.1174 40.2712 17.5978 40.9665 17.2307C41.6618 16.8557 42.4782 16.6682 43.4157 16.6682C44.2985 16.6682 45.0642 16.8517 45.7126 17.2189C46.361 17.5783 46.861 18.0549 47.2126 18.6486C47.572 19.2424 47.7517 19.8947 47.7517 20.6057C47.7517 21.1369 47.654 21.6291 47.4587 22.0822C47.2634 22.5275 46.9938 22.9416 46.6501 23.3244C46.3063 23.6994 45.9118 24.0471 45.4665 24.3674L41.7282 27.0275C41.4392 27.2932 41.2204 27.5549 41.072 27.8127C40.9235 28.0705 40.822 28.3166 40.7673 28.551C40.7126 28.7775 40.6853 28.9963 40.6853 29.2072C40.6853 29.6603 40.7829 30.0666 40.9782 30.426C41.1735 30.7853 41.447 31.0666 41.7985 31.2697C42.1501 31.4728 42.5603 31.5744 43.029 31.5744C43.6696 31.5744 44.2907 31.4338 44.8923 31.1525C45.4938 30.8713 46.0329 30.4689 46.5095 29.9455C46.986 29.4142 47.3649 28.7853 47.6462 28.0588C47.9274 27.3322 48.0681 26.5314 48.0681 25.6564H50.9274C50.9274 26.5314 50.8415 27.3635 50.6696 28.1525C50.4978 28.9338 50.2204 29.6603 49.8376 30.3322C49.4548 30.9963 48.947 31.5861 48.3142 32.1017C48.2673 32.1408 48.2009 32.1994 48.1149 32.2775C48.0368 32.3478 47.9704 32.4025 47.9157 32.4416C47.1657 33.0432 46.3845 33.4924 45.572 33.7892C44.7595 34.0783 43.8532 34.2228 42.8532 34.2228C41.7126 34.2228 40.7243 34.0158 39.8884 33.6017C39.0603 33.1877 38.4196 32.6174 37.9665 31.8908C37.5212 31.1642 37.2985 30.3322 37.2985 29.3947C37.2985 28.7072 37.4313 28.1096 37.697 27.6017C37.9704 27.0861 38.3454 26.6096 38.822 26.1721C39.2985 25.7346 39.8454 25.2932 40.4626 24.8478ZM55.3923 16.9142H58.3688L62.7517 29.4416L67.1345 16.9142H70.111L63.947 33.9767H61.5563L55.3923 16.9142ZM53.7868 16.9142H56.7517L57.2907 29.1252V33.9767H53.7868V16.9142ZM68.7517 16.9142H71.7282V33.9767H68.2126V29.1252L68.7517 16.9142Z" fill="white"/>
</g>
<defs>
<clipPath id="clip0_403_5698">
<rect width="72" height="34" fill="white"/>
</clipPath>
</defs>
</svg>
