<svg width="24" height="24" viewBox="0 0 24 24" fill="none" xmlns="http://www.w3.org/2000/svg">
<path d="M12.9998 4L11.9998 6.934L10.9998 4C10.9459 3.84109 10.9306 3.67163 10.9553 3.50564C10.9799 3.33965 11.0437 3.18193 11.1415 3.04553C11.2392 2.90914 11.3681 2.79801 11.5173 2.72134C11.6666 2.64467 11.832 2.60468 11.9998 2.60468C12.1676 2.60468 12.333 2.64467 12.4823 2.72134C12.6315 2.79801 12.7604 2.90914 12.8581 3.04553C12.9559 3.18193 13.0197 3.33965 13.0444 3.50564C13.069 3.67163 13.0537 3.84109 12.9998 4ZM3.99981 11L6.93381 12L3.99981 13C3.8409 13.0539 3.67143 13.0692 3.50545 13.0446C3.33946 13.0199 3.18174 12.9561 3.04534 12.8583C2.90895 12.7606 2.79781 12.6317 2.72115 12.4825C2.64448 12.3332 2.60449 12.1678 2.60449 12C2.60449 11.8322 2.64448 11.6668 2.72115 11.5175C2.79781 11.3683 2.90895 11.2394 3.04534 11.1417C3.18174 11.0439 3.33946 10.9801 3.50545 10.9554C3.67143 10.9308 3.8409 10.9461 3.99981 11ZM10.9998 20L11.9998 17.066L12.9998 20C13.0537 20.1589 13.069 20.3284 13.0444 20.4944C13.0197 20.6603 12.9559 20.8181 12.8581 20.9545C12.7604 21.0909 12.6315 21.202 12.4823 21.2787C12.333 21.3553 12.1676 21.3953 11.9998 21.3953C11.832 21.3953 11.6666 21.3553 11.5173 21.2787C11.3681 21.202 11.2392 21.0909 11.1415 20.9545C11.0437 20.8181 10.9799 20.6603 10.9553 20.4944C10.9306 20.3284 10.9459 20.1589 10.9998 20ZM19.9998 12.998L17.0658 11.998L19.9998 10.998C20.1587 10.9441 20.3282 10.9288 20.4942 10.9534C20.6602 10.9781 20.8179 11.0419 20.9543 11.1397C21.0907 11.2374 21.2018 11.3663 21.2785 11.5155C21.3551 11.6648 21.3951 11.8302 21.3951 11.998C21.3951 12.1658 21.3551 12.3312 21.2785 12.4805C21.2018 12.6297 21.0907 12.7586 20.9543 12.8563C20.8179 12.9541 20.6602 13.0179 20.4942 13.0426C20.3282 13.0672 20.1587 13.0519 19.9998 12.998ZM7.04981 5.636L8.41681 8.417L5.63581 7.05C5.48468 6.97605 5.35339 6.86709 5.25285 6.73219C5.15231 6.59728 5.08542 6.44032 5.05776 6.27436C5.03009 6.1084 5.04245 5.93823 5.09379 5.778C5.14514 5.61778 5.23399 5.47212 5.35296 5.35315C5.47193 5.23418 5.61759 5.14533 5.77781 5.09398C5.93804 5.04264 6.10821 5.03028 6.27417 5.05795C6.44013 5.08561 6.59709 5.1525 6.732 5.25304C6.8669 5.35358 6.97586 5.48487 7.04981 5.636ZM5.63581 16.949L8.41681 15.582L7.04981 18.363C6.97586 18.5141 6.8669 18.6454 6.732 18.746C6.59709 18.8465 6.44013 18.9134 6.27417 18.9411C6.10821 18.9687 5.93804 18.9564 5.77781 18.905C5.61759 18.8537 5.47193 18.7648 5.35296 18.6458C5.23399 18.5269 5.14514 18.3812 5.09379 18.221C5.04245 18.0608 5.03009 17.8906 5.05776 17.7246C5.08542 17.5587 5.15231 17.4017 5.25285 17.2668C5.35339 17.1319 5.48468 17.0229 5.63581 16.949ZM16.9488 18.363L15.5818 15.582L18.3628 16.949C18.5139 17.0229 18.6452 17.1319 18.7458 17.2668C18.8463 17.4017 18.9132 17.5587 18.9409 17.7246C18.9685 17.8906 18.9562 18.0608 18.9048 18.221C18.8535 18.3812 18.7646 18.5269 18.6457 18.6458C18.5267 18.7648 18.381 18.8537 18.2208 18.905C18.0606 18.9564 17.8904 18.9687 17.7245 18.9411C17.5585 18.9134 17.4015 18.8465 17.2666 18.746C17.1317 18.6454 17.0228 18.5141 16.9488 18.363ZM18.3618 7.048L15.5798 8.416L16.9478 5.634C17.0218 5.48287 17.1307 5.35158 17.2656 5.25104C17.4005 5.1505 17.5575 5.08361 17.7235 5.05595C17.8894 5.02829 18.0596 5.04064 18.2198 5.09198C18.38 5.14333 18.5257 5.23218 18.6447 5.35115C18.7636 5.47012 18.8525 5.61578 18.9038 5.776C18.9552 5.93623 18.9675 6.1064 18.9399 6.27236C18.9122 6.43832 18.8453 6.59528 18.7448 6.73019C18.6442 6.86509 18.5129 6.97405 18.3618 7.048ZM11.9998 16.5C9.51881 16.5 7.49981 14.481 7.49981 12C7.49981 9.519 9.51881 7.5 11.9998 7.5C14.4808 7.5 16.4998 9.519 16.4998 12C16.4998 14.481 14.4808 16.5 11.9998 16.5ZM11.9998 9.5C10.6208 9.5 9.49981 10.621 9.49981 12C9.49981 13.379 10.6208 14.5 11.9998 14.5C13.3788 14.5 14.4998 13.379 14.4998 12C14.4998 10.621 13.3788 9.5 11.9998 9.5Z" fill="white"/>
</svg>
