<svg width="18" height="19" viewBox="0 0 18 19" fill="none" xmlns="http://www.w3.org/2000/svg">
<path d="M11.8185 4.31917C11.8185 2.48604 10.3324 1 8.49928 1C6.66615 1 5.18018 2.48604 5.18018 4.31917V6.09191C5.18018 7.92504 6.66615 9.41108 8.49928 9.41108C10.3324 9.41108 11.8185 7.92504 11.8185 6.09191V4.31917Z" stroke="white" stroke-width="2"/>
<path d="M1 15.4111C1 13.7543 2.34 12.4111 4 12.4111H13.28C14.94 12.4111 16.28 13.7543 16.28 15.4111V16.3229C16.28 16.8752 15.83 17.3229 15.28 17.3229H2C1.45 17.3229 1 16.8752 1 16.3229V15.4111Z" stroke="white" stroke-width="2"/>
</svg>
